<svg xmlns="http://www.w3.org/2000/svg" xmlns:xlink="http://www.w3.org/1999/xlink" width="500" zoomAndPan="magnify" viewBox="0 0 375 374.999991" height="500" preserveAspectRatio="xMidYMid meet" version="1.0"><defs><g/></defs><g fill="#000000" fill-opacity="1"><g transform="translate(111.869697, 198.743526)"><g><path d="M 3.078125 -42.25 L 18.171875 -42.25 C 22.234375 -42.25 25.546875 -41.160156 28.109375 -38.984375 C 30.671875 -36.816406 31.953125 -33.722656 31.953125 -29.703125 C 31.953125 -26.585938 31.175781 -23.976562 29.625 -21.875 C 28.070312 -19.78125 25.960938 -18.304688 23.296875 -17.453125 L 37.84375 0 L 25.59375 0 L 12.703125 -16.6875 L 12.703125 0 L 3.078125 0 Z M 12.703125 -23.5 L 13.828125 -23.5 C 14.710938 -23.5 15.460938 -23.515625 16.078125 -23.546875 C 16.691406 -23.585938 17.390625 -23.707031 18.171875 -23.90625 C 18.960938 -24.113281 19.59375 -24.40625 20.0625 -24.78125 C 20.539062 -25.15625 20.953125 -25.703125 21.296875 -26.421875 C 21.640625 -27.140625 21.8125 -28.007812 21.8125 -29.03125 C 21.8125 -30.050781 21.640625 -30.921875 21.296875 -31.640625 C 20.953125 -32.359375 20.539062 -32.90625 20.0625 -33.28125 C 19.59375 -33.65625 18.960938 -33.941406 18.171875 -34.140625 C 17.390625 -34.347656 16.691406 -34.46875 16.078125 -34.5 C 15.460938 -34.539062 14.710938 -34.5625 13.828125 -34.5625 L 12.703125 -34.5625 Z M 12.703125 -23.5 "/></g></g></g><g fill="#000000" fill-opacity="1"><g transform="translate(143.714225, 198.743526)"><g><path d="M 3.9375 -40.90625 C 5 -41.96875 6.265625 -42.5 7.734375 -42.5 C 9.203125 -42.5 10.460938 -41.96875 11.515625 -40.90625 C 12.578125 -39.851562 13.109375 -38.59375 13.109375 -37.125 C 13.109375 -35.65625 12.578125 -34.390625 11.515625 -33.328125 C 10.460938 -32.273438 9.203125 -31.75 7.734375 -31.75 C 6.265625 -31.75 5 -32.273438 3.9375 -33.328125 C 2.882812 -34.390625 2.359375 -35.65625 2.359375 -37.125 C 2.359375 -38.59375 2.882812 -39.851562 3.9375 -40.90625 Z M 3.078125 -26.265625 L 3.078125 0 L 12.140625 0 L 12.140625 -26.265625 Z M 3.078125 -26.265625 "/></g></g></g><g fill="#000000" fill-opacity="1"><g transform="translate(154.36227, 198.743526)"><g><path d="M 4.609375 -26.265625 L 4.609375 -36.046875 L 13.671875 -36.046875 L 13.671875 -26.265625 L 19.203125 -26.265625 L 19.203125 -19.359375 L 13.671875 -19.359375 L 13.671875 -11.015625 C 13.671875 -8.585938 14.351562 -7.375 15.71875 -7.375 C 16.0625 -7.375 16.421875 -7.441406 16.796875 -7.578125 C 17.171875 -7.710938 17.460938 -7.847656 17.671875 -7.984375 L 17.96875 -8.1875 L 20.21875 -0.875 C 18.28125 0.21875 16.0625 0.765625 13.5625 0.765625 C 11.863281 0.765625 10.398438 0.46875 9.171875 -0.125 C 7.941406 -0.726562 7.007812 -1.53125 6.375 -2.53125 C 5.738281 -3.539062 5.285156 -4.597656 5.015625 -5.703125 C 4.742188 -6.816406 4.609375 -8.003906 4.609375 -9.265625 L 4.609375 -19.359375 L 0.8125 -19.359375 L 0.8125 -26.265625 Z M 4.609375 -26.265625 "/></g></g></g><g fill="#000000" fill-opacity="1"><g transform="translate(169.771836, 198.743526)"><g><path d="M 29.640625 -11.875 L 10.59375 -11.875 C 10.59375 -10.03125 11.191406 -8.664062 12.390625 -7.78125 C 13.585938 -6.894531 14.882812 -6.453125 16.28125 -6.453125 C 17.75 -6.453125 18.910156 -6.644531 19.765625 -7.03125 C 20.617188 -7.425781 21.59375 -8.207031 22.6875 -9.375 L 29.234375 -6.09375 C 26.503906 -1.519531 21.960938 0.765625 15.609375 0.765625 C 11.648438 0.765625 8.253906 -0.585938 5.421875 -3.296875 C 2.585938 -6.015625 1.171875 -9.285156 1.171875 -13.109375 C 1.171875 -16.929688 2.585938 -20.207031 5.421875 -22.9375 C 8.253906 -25.664062 11.648438 -27.03125 15.609375 -27.03125 C 19.773438 -27.03125 23.164062 -25.828125 25.78125 -23.421875 C 28.394531 -21.015625 29.703125 -17.578125 29.703125 -13.109375 C 29.703125 -12.492188 29.679688 -12.082031 29.640625 -11.875 Z M 10.859375 -16.890625 L 20.84375 -16.890625 C 20.632812 -18.253906 20.09375 -19.300781 19.21875 -20.03125 C 18.351562 -20.769531 17.238281 -21.140625 15.875 -21.140625 C 14.375 -21.140625 13.175781 -20.75 12.28125 -19.96875 C 11.394531 -19.1875 10.921875 -18.160156 10.859375 -16.890625 Z M 10.859375 -16.890625 "/></g></g></g><g fill="#000000" fill-opacity="1"><g transform="translate(195.83085, 198.743526)"><g><path d="M 14.484375 -27.03125 C 15.992188 -27.03125 17.476562 -26.859375 18.9375 -26.515625 C 20.40625 -26.179688 21.5 -25.84375 22.21875 -25.5 L 23.296875 -24.984375 L 20.328125 -19.046875 C 18.273438 -20.140625 16.328125 -20.6875 14.484375 -20.6875 C 13.460938 -20.6875 12.738281 -20.570312 12.3125 -20.34375 C 11.882812 -20.125 11.671875 -19.707031 11.671875 -19.09375 C 11.671875 -18.957031 11.6875 -18.820312 11.71875 -18.6875 C 11.757812 -18.550781 11.828125 -18.421875 11.921875 -18.296875 C 12.023438 -18.179688 12.117188 -18.082031 12.203125 -18 C 12.296875 -17.914062 12.441406 -17.820312 12.640625 -17.71875 C 12.847656 -17.613281 13.007812 -17.535156 13.125 -17.484375 C 13.25 -17.429688 13.445312 -17.351562 13.71875 -17.25 C 13.988281 -17.15625 14.191406 -17.082031 14.328125 -17.03125 C 14.472656 -16.976562 14.707031 -16.898438 15.03125 -16.796875 C 15.351562 -16.691406 15.597656 -16.625 15.765625 -16.59375 C 16.828125 -16.28125 17.75 -15.9375 18.53125 -15.5625 C 19.320312 -15.1875 20.148438 -14.675781 21.015625 -14.03125 C 21.890625 -13.382812 22.566406 -12.566406 23.046875 -11.578125 C 23.523438 -10.585938 23.765625 -9.457031 23.765625 -8.1875 C 23.765625 -2.21875 19.613281 0.765625 11.3125 0.765625 C 9.4375 0.765625 7.65625 0.476562 5.96875 -0.09375 C 4.28125 -0.675781 3.054688 -1.257812 2.296875 -1.84375 L 1.171875 -2.765625 L 4.859375 -8.953125 C 5.140625 -8.722656 5.5 -8.441406 5.9375 -8.109375 C 6.382812 -7.785156 7.1875 -7.34375 8.34375 -6.78125 C 9.507812 -6.21875 10.515625 -5.9375 11.359375 -5.9375 C 13.242188 -5.9375 14.1875 -6.566406 14.1875 -7.828125 C 14.1875 -8.410156 13.945312 -8.863281 13.46875 -9.1875 C 12.988281 -9.507812 12.175781 -9.875 11.03125 -10.28125 C 9.882812 -10.695312 8.988281 -11.078125 8.34375 -11.421875 C 6.707031 -12.273438 5.410156 -13.238281 4.453125 -14.3125 C 3.492188 -15.382812 3.015625 -16.8125 3.015625 -18.59375 C 3.015625 -21.25 4.046875 -23.316406 6.109375 -24.796875 C 8.179688 -26.285156 10.972656 -27.03125 14.484375 -27.03125 Z M 14.484375 -27.03125 "/></g></g></g><g fill="#000000" fill-opacity="1"><g transform="translate(216.206756, 198.743526)"><g><path d="M 3.078125 0 L 3.078125 -44.03125 L 12.140625 -44.03125 L 12.140625 -23.5 L 12.234375 -23.5 C 14.585938 -25.851562 17.097656 -27.03125 19.765625 -27.03125 C 21.054688 -27.03125 22.34375 -26.859375 23.625 -26.515625 C 24.90625 -26.179688 26.132812 -25.65625 27.3125 -24.9375 C 28.488281 -24.21875 29.441406 -23.203125 30.171875 -21.890625 C 30.910156 -20.578125 31.28125 -19.050781 31.28125 -17.3125 L 31.28125 0 L 22.21875 0 L 22.21875 -14.84375 C 22.21875 -16.207031 21.78125 -17.398438 20.90625 -18.421875 C 20.039062 -19.453125 18.910156 -19.96875 17.515625 -19.96875 C 16.148438 -19.96875 14.910156 -19.4375 13.796875 -18.375 C 12.691406 -17.320312 12.140625 -16.144531 12.140625 -14.84375 L 12.140625 0 Z M 3.078125 0 "/></g></g></g><g fill="#000000" fill-opacity="1"><g transform="translate(245.235334, 198.743526)"><g><path d="M 8.90625 -10.953125 C 10.539062 -10.953125 11.929688 -10.378906 13.078125 -9.234375 C 14.222656 -8.097656 14.796875 -6.707031 14.796875 -5.0625 C 14.796875 -3.457031 14.222656 -2.082031 13.078125 -0.9375 C 11.929688 0.195312 10.539062 0.765625 8.90625 0.765625 C 7.300781 0.765625 5.925781 0.195312 4.78125 -0.9375 C 3.644531 -2.082031 3.078125 -3.457031 3.078125 -5.0625 C 3.078125 -6.707031 3.644531 -8.097656 4.78125 -9.234375 C 5.925781 -10.378906 7.300781 -10.953125 8.90625 -10.953125 Z M 8.90625 -10.953125 "/></g></g></g><g fill="#000000" fill-opacity="1"><g transform="translate(147.084854, 212.619406)"><g><path d="M 6.15625 -3.796875 C 6.289062 -3.796875 6.40625 -3.742188 6.5 -3.640625 C 6.59375 -3.546875 6.640625 -3.429688 6.640625 -3.296875 L 6.640625 -0.984375 C 6.640625 -0.796875 6.554688 -0.648438 6.390625 -0.546875 C 6.078125 -0.335938 5.726562 -0.175781 5.34375 -0.0625 C 4.96875 0.0507812 4.582031 0.109375 4.1875 0.109375 C 3.5 0.109375 2.867188 -0.0546875 2.296875 -0.390625 C 1.722656 -0.722656 1.269531 -1.171875 0.9375 -1.734375 C 0.601562 -2.304688 0.4375 -2.929688 0.4375 -3.609375 C 0.4375 -4.285156 0.601562 -4.90625 0.9375 -5.46875 C 1.269531 -6.039062 1.722656 -6.492188 2.296875 -6.828125 C 2.867188 -7.160156 3.5 -7.328125 4.1875 -7.328125 C 4.53125 -7.328125 4.859375 -7.285156 5.171875 -7.203125 C 5.492188 -7.128906 5.785156 -7.019531 6.046875 -6.875 C 6.128906 -6.820312 6.191406 -6.757812 6.234375 -6.6875 C 6.273438 -6.625 6.296875 -6.550781 6.296875 -6.46875 C 6.296875 -6.332031 6.25 -6.210938 6.15625 -6.109375 C 6.0625 -6.003906 5.945312 -5.953125 5.8125 -5.953125 C 5.707031 -5.953125 5.617188 -5.976562 5.546875 -6.03125 C 5.097656 -6.238281 4.644531 -6.34375 4.1875 -6.34375 C 3.6875 -6.34375 3.234375 -6.222656 2.828125 -5.984375 C 2.421875 -5.742188 2.097656 -5.410156 1.859375 -4.984375 C 1.617188 -4.566406 1.5 -4.109375 1.5 -3.609375 C 1.5 -3.109375 1.617188 -2.648438 1.859375 -2.234375 C 2.097656 -1.816406 2.421875 -1.484375 2.828125 -1.234375 C 3.234375 -0.992188 3.6875 -0.875 4.1875 -0.875 C 4.414062 -0.875 4.660156 -0.898438 4.921875 -0.953125 C 5.179688 -1.015625 5.40625 -1.085938 5.59375 -1.171875 L 5.59375 -2.8125 L 4.34375 -2.8125 C 4.207031 -2.8125 4.085938 -2.859375 3.984375 -2.953125 C 3.890625 -3.046875 3.84375 -3.160156 3.84375 -3.296875 C 3.84375 -3.441406 3.890625 -3.5625 3.984375 -3.65625 C 4.085938 -3.75 4.207031 -3.796875 4.34375 -3.796875 Z M 6.15625 -3.796875 "/></g></g></g><g fill="#000000" fill-opacity="1"><g transform="translate(160.964105, 212.619406)"><g><path d="M 3.421875 -5.5 C 4.628906 -5.5 5.234375 -4.75 5.234375 -3.25 L 5.234375 -0.5 C 5.234375 -0.351562 5.1875 -0.234375 5.09375 -0.140625 C 5 -0.046875 4.882812 0 4.75 0 C 4.601562 0 4.484375 -0.046875 4.390625 -0.140625 C 4.304688 -0.234375 4.265625 -0.351562 4.265625 -0.5 L 4.265625 -3.25 C 4.265625 -4.144531 3.882812 -4.59375 3.125 -4.59375 C 2.71875 -4.59375 2.378906 -4.460938 2.109375 -4.203125 C 1.847656 -3.941406 1.71875 -3.625 1.71875 -3.25 L 1.71875 -0.5 C 1.71875 -0.351562 1.671875 -0.234375 1.578125 -0.140625 C 1.484375 -0.046875 1.363281 0 1.21875 0 C 1.070312 0 0.953125 -0.046875 0.859375 -0.140625 C 0.773438 -0.234375 0.734375 -0.351562 0.734375 -0.5 L 0.734375 -7.140625 C 0.734375 -7.273438 0.78125 -7.390625 0.875 -7.484375 C 0.96875 -7.578125 1.082031 -7.625 1.21875 -7.625 C 1.363281 -7.625 1.484375 -7.578125 1.578125 -7.484375 C 1.671875 -7.390625 1.71875 -7.273438 1.71875 -7.140625 L 1.71875 -4.53125 C 1.882812 -4.789062 2.117188 -5.015625 2.421875 -5.203125 C 2.734375 -5.398438 3.066406 -5.5 3.421875 -5.5 Z M 3.421875 -5.5 "/></g></g></g><g fill="#000000" fill-opacity="1"><g transform="translate(173.648466, 212.619406)"><g><path d="M 5.84375 -2.703125 C 5.84375 -2.160156 5.722656 -1.675781 5.484375 -1.25 C 5.242188 -0.832031 4.914062 -0.5 4.5 -0.25 C 4.082031 -0.0078125 3.625 0.109375 3.125 0.109375 C 2.625 0.109375 2.164062 -0.0078125 1.75 -0.25 C 1.332031 -0.5 1.003906 -0.832031 0.765625 -1.25 C 0.523438 -1.675781 0.40625 -2.160156 0.40625 -2.703125 C 0.40625 -3.234375 0.523438 -3.71875 0.765625 -4.15625 C 1.003906 -4.59375 1.332031 -4.929688 1.75 -5.171875 C 2.164062 -5.410156 2.625 -5.53125 3.125 -5.53125 C 3.625 -5.53125 4.082031 -5.410156 4.5 -5.171875 C 4.914062 -4.929688 5.242188 -4.59375 5.484375 -4.15625 C 5.722656 -3.71875 5.84375 -3.234375 5.84375 -2.703125 Z M 4.875 -2.703125 C 4.875 -3.078125 4.796875 -3.410156 4.640625 -3.703125 C 4.484375 -3.992188 4.269531 -4.21875 4 -4.375 C 3.738281 -4.539062 3.445312 -4.625 3.125 -4.625 C 2.800781 -4.625 2.503906 -4.539062 2.234375 -4.375 C 1.972656 -4.21875 1.765625 -3.992188 1.609375 -3.703125 C 1.453125 -3.410156 1.375 -3.078125 1.375 -2.703125 C 1.375 -2.335938 1.453125 -2.007812 1.609375 -1.71875 C 1.765625 -1.4375 1.972656 -1.210938 2.234375 -1.046875 C 2.503906 -0.878906 2.800781 -0.796875 3.125 -0.796875 C 3.445312 -0.796875 3.738281 -0.878906 4 -1.046875 C 4.269531 -1.210938 4.484375 -1.4375 4.640625 -1.71875 C 4.796875 -2.007812 4.875 -2.335938 4.875 -2.703125 Z M 4.875 -2.703125 "/></g></g></g><g fill="#000000" fill-opacity="1"><g transform="translate(186.610954, 212.619406)"><g><path d="M 5.109375 -7.625 C 5.253906 -7.625 5.375 -7.578125 5.46875 -7.484375 C 5.5625 -7.398438 5.609375 -7.285156 5.609375 -7.140625 L 5.609375 -0.5 C 5.609375 -0.351562 5.5625 -0.234375 5.46875 -0.140625 C 5.375 -0.046875 5.253906 0 5.109375 0 C 4.972656 0 4.859375 -0.046875 4.765625 -0.140625 C 4.671875 -0.234375 4.625 -0.351562 4.625 -0.5 L 4.625 -0.78125 C 4.457031 -0.53125 4.21875 -0.316406 3.90625 -0.140625 C 3.59375 0.0234375 3.253906 0.109375 2.890625 0.109375 C 2.429688 0.109375 2.007812 -0.0078125 1.625 -0.25 C 1.25 -0.5 0.953125 -0.835938 0.734375 -1.265625 C 0.515625 -1.691406 0.40625 -2.175781 0.40625 -2.71875 C 0.40625 -3.25 0.507812 -3.726562 0.71875 -4.15625 C 0.9375 -4.59375 1.234375 -4.929688 1.609375 -5.171875 C 1.992188 -5.410156 2.410156 -5.53125 2.859375 -5.53125 C 3.222656 -5.53125 3.5625 -5.453125 3.875 -5.296875 C 4.1875 -5.148438 4.4375 -4.957031 4.625 -4.71875 L 4.625 -7.140625 C 4.625 -7.285156 4.671875 -7.398438 4.765625 -7.484375 C 4.859375 -7.578125 4.972656 -7.625 5.109375 -7.625 Z M 3.015625 -0.796875 C 3.335938 -0.796875 3.625 -0.878906 3.875 -1.046875 C 4.125 -1.210938 4.316406 -1.441406 4.453125 -1.734375 C 4.597656 -2.023438 4.671875 -2.351562 4.671875 -2.71875 C 4.671875 -3.070312 4.597656 -3.394531 4.453125 -3.6875 C 4.316406 -3.976562 4.125 -4.207031 3.875 -4.375 C 3.625 -4.539062 3.335938 -4.625 3.015625 -4.625 C 2.691406 -4.625 2.40625 -4.539062 2.15625 -4.375 C 1.90625 -4.207031 1.707031 -3.976562 1.5625 -3.6875 C 1.414062 -3.394531 1.34375 -3.070312 1.34375 -2.71875 C 1.34375 -2.351562 1.414062 -2.023438 1.5625 -1.734375 C 1.707031 -1.441406 1.90625 -1.210938 2.15625 -1.046875 C 2.40625 -0.878906 2.691406 -0.796875 3.015625 -0.796875 Z M 3.015625 -0.796875 "/></g></g></g><g fill="#000000" fill-opacity="1"><g transform="translate(199.65585, 212.619406)"><g><path d="M 5.46875 -2.90625 C 5.46875 -2.78125 5.414062 -2.675781 5.3125 -2.59375 C 5.21875 -2.507812 5.109375 -2.46875 4.984375 -2.46875 L 1.34375 -2.46875 C 1.394531 -1.96875 1.585938 -1.5625 1.921875 -1.25 C 2.253906 -0.945312 2.660156 -0.796875 3.140625 -0.796875 C 3.472656 -0.796875 3.742188 -0.84375 3.953125 -0.9375 C 4.160156 -1.039062 4.34375 -1.164062 4.5 -1.3125 C 4.601562 -1.375 4.703125 -1.40625 4.796875 -1.40625 C 4.910156 -1.40625 5.003906 -1.363281 5.078125 -1.28125 C 5.160156 -1.207031 5.203125 -1.113281 5.203125 -1 C 5.203125 -0.851562 5.132812 -0.722656 5 -0.609375 C 4.800781 -0.410156 4.535156 -0.238281 4.203125 -0.09375 C 3.878906 0.0390625 3.546875 0.109375 3.203125 0.109375 C 2.640625 0.109375 2.144531 -0.00390625 1.71875 -0.234375 C 1.300781 -0.472656 0.976562 -0.800781 0.75 -1.21875 C 0.519531 -1.644531 0.40625 -2.125 0.40625 -2.65625 C 0.40625 -3.226562 0.519531 -3.734375 0.75 -4.171875 C 0.988281 -4.609375 1.300781 -4.941406 1.6875 -5.171875 C 2.082031 -5.410156 2.503906 -5.53125 2.953125 -5.53125 C 3.390625 -5.53125 3.800781 -5.414062 4.1875 -5.1875 C 4.570312 -4.957031 4.878906 -4.644531 5.109375 -4.25 C 5.347656 -3.851562 5.46875 -3.40625 5.46875 -2.90625 Z M 2.953125 -4.625 C 2.566406 -4.625 2.234375 -4.515625 1.953125 -4.296875 C 1.671875 -4.078125 1.484375 -3.742188 1.390625 -3.296875 L 4.4375 -3.296875 L 4.4375 -3.375 C 4.40625 -3.738281 4.238281 -4.035156 3.9375 -4.265625 C 3.644531 -4.503906 3.316406 -4.625 2.953125 -4.625 Z M 2.953125 -4.625 "/></g></g></g><g fill="#000000" fill-opacity="1"><g transform="translate(212.247503, 212.619406)"><g><path d="M 1.796875 -0.5 C 1.796875 -0.351562 1.742188 -0.234375 1.640625 -0.140625 C 1.546875 -0.046875 1.429688 0 1.296875 0 C 1.160156 0 1.046875 -0.046875 0.953125 -0.140625 C 0.859375 -0.234375 0.8125 -0.351562 0.8125 -0.5 L 0.8125 -7.140625 C 0.8125 -7.273438 0.859375 -7.390625 0.953125 -7.484375 C 1.054688 -7.578125 1.175781 -7.625 1.3125 -7.625 C 1.445312 -7.625 1.5625 -7.578125 1.65625 -7.484375 C 1.75 -7.390625 1.796875 -7.273438 1.796875 -7.140625 Z M 1.796875 -0.5 "/></g></g></g><g fill="#000000" fill-opacity="1"><g transform="translate(221.573825, 212.619406)"><g><path d="M 5.109375 -5.46875 C 5.253906 -5.46875 5.375 -5.421875 5.46875 -5.328125 C 5.5625 -5.242188 5.609375 -5.125 5.609375 -4.96875 L 5.609375 -0.5 C 5.609375 -0.351562 5.5625 -0.234375 5.46875 -0.140625 C 5.375 -0.046875 5.253906 0 5.109375 0 C 4.972656 0 4.859375 -0.046875 4.765625 -0.140625 C 4.671875 -0.234375 4.625 -0.351562 4.625 -0.5 L 4.625 -0.765625 C 4.445312 -0.523438 4.203125 -0.316406 3.890625 -0.140625 C 3.585938 0.0234375 3.253906 0.109375 2.890625 0.109375 C 2.429688 0.109375 2.007812 -0.0078125 1.625 -0.25 C 1.238281 -0.5 0.9375 -0.835938 0.71875 -1.265625 C 0.507812 -1.691406 0.40625 -2.175781 0.40625 -2.71875 C 0.40625 -3.25 0.507812 -3.726562 0.71875 -4.15625 C 0.9375 -4.59375 1.234375 -4.929688 1.609375 -5.171875 C 1.992188 -5.410156 2.410156 -5.53125 2.859375 -5.53125 C 3.222656 -5.53125 3.5625 -5.453125 3.875 -5.296875 C 4.195312 -5.148438 4.445312 -4.957031 4.625 -4.71875 L 4.625 -4.96875 C 4.625 -5.113281 4.671875 -5.234375 4.765625 -5.328125 C 4.859375 -5.421875 4.972656 -5.46875 5.109375 -5.46875 Z M 3.015625 -0.796875 C 3.335938 -0.796875 3.625 -0.878906 3.875 -1.046875 C 4.125 -1.210938 4.316406 -1.441406 4.453125 -1.734375 C 4.597656 -2.023438 4.671875 -2.351562 4.671875 -2.71875 C 4.671875 -3.070312 4.597656 -3.390625 4.453125 -3.671875 C 4.316406 -3.960938 4.125 -4.191406 3.875 -4.359375 C 3.625 -4.535156 3.335938 -4.625 3.015625 -4.625 C 2.691406 -4.625 2.40625 -4.539062 2.15625 -4.375 C 1.90625 -4.207031 1.707031 -3.976562 1.5625 -3.6875 C 1.414062 -3.40625 1.34375 -3.082031 1.34375 -2.71875 C 1.34375 -2.351562 1.414062 -2.023438 1.5625 -1.734375 C 1.707031 -1.441406 1.90625 -1.210938 2.15625 -1.046875 C 2.40625 -0.878906 2.691406 -0.796875 3.015625 -0.796875 Z M 3.015625 -0.796875 "/></g></g></g></svg>