<svg xmlns="http://www.w3.org/2000/svg" xmlns:xlink="http://www.w3.org/1999/xlink" width="500" zoomAndPan="magnify" viewBox="0 0 375 374.999991" height="500" preserveAspectRatio="xMidYMid meet" version="1.0"><defs><g/></defs><g fill="#f1efe7" fill-opacity="1"><g transform="translate(134.323047, 196.874987)"><g><path d="M 2.15625 -29.703125 L 12.78125 -29.703125 C 15.632812 -29.703125 17.960938 -28.9375 19.765625 -27.40625 C 21.566406 -25.882812 22.46875 -23.707031 22.46875 -20.875 C 22.46875 -18.695312 21.921875 -16.867188 20.828125 -15.390625 C 19.734375 -13.910156 18.25 -12.875 16.375 -12.28125 L 26.609375 0 L 18 0 L 8.921875 -11.734375 L 8.921875 0 L 2.15625 0 Z M 8.921875 -16.53125 L 9.71875 -16.53125 C 10.34375 -16.53125 10.867188 -16.539062 11.296875 -16.5625 C 11.734375 -16.582031 12.226562 -16.664062 12.78125 -16.8125 C 13.332031 -16.957031 13.773438 -17.160156 14.109375 -17.421875 C 14.441406 -17.679688 14.726562 -18.0625 14.96875 -18.5625 C 15.21875 -19.070312 15.34375 -19.6875 15.34375 -20.40625 C 15.34375 -21.125 15.21875 -21.734375 14.96875 -22.234375 C 14.726562 -22.742188 14.441406 -23.128906 14.109375 -23.390625 C 13.773438 -23.660156 13.332031 -23.867188 12.78125 -24.015625 C 12.226562 -24.160156 11.734375 -24.242188 11.296875 -24.265625 C 10.867188 -24.285156 10.34375 -24.296875 9.71875 -24.296875 L 8.921875 -24.296875 Z M 8.921875 -16.53125 "/></g></g></g><g fill="#f1efe7" fill-opacity="1"><g transform="translate(156.715099, 196.874987)"><g><path d="M 2.765625 -28.75 C 3.515625 -29.5 4.40625 -29.875 5.4375 -29.875 C 6.46875 -29.875 7.351562 -29.5 8.09375 -28.75 C 8.84375 -28.007812 9.21875 -27.125 9.21875 -26.09375 C 9.21875 -25.0625 8.84375 -24.171875 8.09375 -23.421875 C 7.351562 -22.679688 6.46875 -22.3125 5.4375 -22.3125 C 4.40625 -22.3125 3.515625 -22.679688 2.765625 -23.421875 C 2.023438 -24.171875 1.65625 -25.0625 1.65625 -26.09375 C 1.65625 -27.125 2.023438 -28.007812 2.765625 -28.75 Z M 2.15625 -18.46875 L 2.15625 0 L 8.53125 0 L 8.53125 -18.46875 Z M 2.15625 -18.46875 "/></g></g></g><g fill="#f1efe7" fill-opacity="1"><g transform="translate(164.203122, 196.874987)"><g><path d="M 3.234375 -18.46875 L 3.234375 -25.34375 L 9.609375 -25.34375 L 9.609375 -18.46875 L 13.5 -18.46875 L 13.5 -13.609375 L 9.609375 -13.609375 L 9.609375 -7.734375 C 9.609375 -6.035156 10.085938 -5.1875 11.046875 -5.1875 C 11.285156 -5.1875 11.535156 -5.234375 11.796875 -5.328125 C 12.066406 -5.421875 12.273438 -5.515625 12.421875 -5.609375 L 12.640625 -5.765625 L 14.21875 -0.609375 C 12.851562 0.160156 11.296875 0.546875 9.546875 0.546875 C 8.335938 0.546875 7.300781 0.335938 6.4375 -0.078125 C 5.570312 -0.503906 4.914062 -1.070312 4.46875 -1.78125 C 4.03125 -2.488281 3.710938 -3.234375 3.515625 -4.015625 C 3.328125 -4.796875 3.234375 -5.628906 3.234375 -6.515625 L 3.234375 -13.609375 L 0.578125 -13.609375 L 0.578125 -18.46875 Z M 3.234375 -18.46875 "/></g></g></g><g fill="#f1efe7" fill-opacity="1"><g transform="translate(175.039149, 196.874987)"><g><path d="M 20.84375 -8.359375 L 7.453125 -8.359375 C 7.453125 -7.054688 7.867188 -6.09375 8.703125 -5.46875 C 9.546875 -4.84375 10.460938 -4.53125 11.453125 -4.53125 C 12.484375 -4.53125 13.296875 -4.664062 13.890625 -4.9375 C 14.492188 -5.21875 15.179688 -5.769531 15.953125 -6.59375 L 20.5625 -4.28125 C 18.632812 -1.0625 15.441406 0.546875 10.984375 0.546875 C 8.191406 0.546875 5.800781 -0.40625 3.8125 -2.3125 C 1.820312 -4.226562 0.828125 -6.53125 0.828125 -9.21875 C 0.828125 -11.90625 1.820312 -14.207031 3.8125 -16.125 C 5.800781 -18.050781 8.191406 -19.015625 10.984375 -19.015625 C 13.910156 -19.015625 16.289062 -18.164062 18.125 -16.46875 C 19.957031 -14.78125 20.875 -12.363281 20.875 -9.21875 C 20.875 -8.78125 20.863281 -8.492188 20.84375 -8.359375 Z M 7.625 -11.875 L 14.65625 -11.875 C 14.507812 -12.832031 14.128906 -13.570312 13.515625 -14.09375 C 12.898438 -14.613281 12.113281 -14.875 11.15625 -14.875 C 10.101562 -14.875 9.265625 -14.597656 8.640625 -14.046875 C 8.015625 -13.492188 7.675781 -12.769531 7.625 -11.875 Z M 7.625 -11.875 "/></g></g></g><g fill="#f1efe7" fill-opacity="1"><g transform="translate(193.363192, 196.874987)"><g><path d="M 10.1875 -19.015625 C 11.238281 -19.015625 12.28125 -18.890625 13.3125 -18.640625 C 14.351562 -18.398438 15.125 -18.160156 15.625 -17.921875 L 16.375 -17.5625 L 14.296875 -13.390625 C 12.847656 -14.160156 11.476562 -14.546875 10.1875 -14.546875 C 9.46875 -14.546875 8.957031 -14.46875 8.65625 -14.3125 C 8.351562 -14.15625 8.203125 -13.859375 8.203125 -13.421875 C 8.203125 -13.328125 8.210938 -13.234375 8.234375 -13.140625 C 8.265625 -13.046875 8.316406 -12.957031 8.390625 -12.875 C 8.460938 -12.789062 8.523438 -12.71875 8.578125 -12.65625 C 8.640625 -12.59375 8.742188 -12.523438 8.890625 -12.453125 C 9.035156 -12.378906 9.148438 -12.320312 9.234375 -12.28125 C 9.316406 -12.25 9.453125 -12.195312 9.640625 -12.125 C 9.835938 -12.0625 9.984375 -12.007812 10.078125 -11.96875 C 10.171875 -11.9375 10.332031 -11.882812 10.5625 -11.8125 C 10.789062 -11.738281 10.96875 -11.6875 11.09375 -11.65625 C 11.832031 -11.445312 12.476562 -11.207031 13.03125 -10.9375 C 13.582031 -10.675781 14.164062 -10.316406 14.78125 -9.859375 C 15.394531 -9.410156 15.867188 -8.835938 16.203125 -8.140625 C 16.535156 -7.441406 16.703125 -6.648438 16.703125 -5.765625 C 16.703125 -1.554688 13.785156 0.546875 7.953125 0.546875 C 6.628906 0.546875 5.375 0.34375 4.1875 -0.0625 C 3 -0.476562 2.144531 -0.890625 1.625 -1.296875 L 0.828125 -1.9375 L 3.421875 -6.296875 C 3.609375 -6.128906 3.859375 -5.929688 4.171875 -5.703125 C 4.484375 -5.472656 5.046875 -5.160156 5.859375 -4.765625 C 6.679688 -4.367188 7.390625 -4.171875 7.984375 -4.171875 C 9.304688 -4.171875 9.96875 -4.617188 9.96875 -5.515625 C 9.96875 -5.921875 9.800781 -6.234375 9.46875 -6.453125 C 9.132812 -6.679688 8.5625 -6.941406 7.75 -7.234375 C 6.945312 -7.523438 6.320312 -7.789062 5.875 -8.03125 C 4.71875 -8.625 3.800781 -9.300781 3.125 -10.0625 C 2.457031 -10.820312 2.125 -11.820312 2.125 -13.0625 C 2.125 -14.9375 2.847656 -16.394531 4.296875 -17.4375 C 5.753906 -18.488281 7.71875 -19.015625 10.1875 -19.015625 Z M 10.1875 -19.015625 "/></g></g></g><g fill="#f1efe7" fill-opacity="1"><g transform="translate(207.691223, 196.874987)"><g><path d="M 2.15625 0 L 2.15625 -30.953125 L 8.53125 -30.953125 L 8.53125 -16.53125 L 8.609375 -16.53125 C 10.265625 -18.1875 12.023438 -19.015625 13.890625 -19.015625 C 14.804688 -19.015625 15.710938 -18.890625 16.609375 -18.640625 C 17.515625 -18.398438 18.378906 -18.03125 19.203125 -17.53125 C 20.035156 -17.03125 20.707031 -16.316406 21.21875 -15.390625 C 21.738281 -14.460938 22 -13.390625 22 -12.171875 L 22 0 L 15.625 0 L 15.625 -10.4375 C 15.625 -11.394531 15.316406 -12.234375 14.703125 -12.953125 C 14.085938 -13.679688 13.289062 -14.046875 12.3125 -14.046875 C 11.351562 -14.046875 10.484375 -13.671875 9.703125 -12.921875 C 8.921875 -12.179688 8.53125 -11.351562 8.53125 -10.4375 L 8.53125 0 Z M 2.15625 0 "/></g></g></g><g fill="#f1efe7" fill-opacity="1"><g transform="translate(228.103264, 196.874987)"><g><path d="M 6.265625 -7.703125 C 7.410156 -7.703125 8.382812 -7.300781 9.1875 -6.5 C 10 -5.695312 10.40625 -4.71875 10.40625 -3.5625 C 10.40625 -2.4375 10 -1.46875 9.1875 -0.65625 C 8.382812 0.144531 7.410156 0.546875 6.265625 0.546875 C 5.140625 0.546875 4.171875 0.144531 3.359375 -0.65625 C 2.554688 -1.46875 2.15625 -2.4375 2.15625 -3.5625 C 2.15625 -4.71875 2.554688 -5.695312 3.359375 -6.5 C 4.171875 -7.300781 5.140625 -7.703125 6.265625 -7.703125 Z M 6.265625 -7.703125 "/></g></g></g></svg>