<svg xmlns="http://www.w3.org/2000/svg" xmlns:xlink="http://www.w3.org/1999/xlink" width="500" zoomAndPan="magnify" viewBox="0 0 375 374.999991" height="500" preserveAspectRatio="xMidYMid meet" version="1.0"><defs><g/><clipPath id="ca9118bcc0"><path d="M 160.136719 160.136719 L 214.886719 160.136719 L 214.886719 214.886719 L 160.136719 214.886719 Z M 160.136719 160.136719 " clip-rule="nonzero"/></clipPath></defs><g clip-path="url(#ca9118bcc0)"><path fill="#231f20" d="M 187.511719 160.136719 C 172.390625 160.136719 160.136719 172.402344 160.136719 187.511719 C 160.136719 202.625 172.390625 214.886719 187.511719 214.886719 C 202.632812 214.886719 214.886719 202.625 214.886719 187.511719 C 214.886719 172.402344 202.632812 160.136719 187.511719 160.136719 Z M 187.511719 213.152344 C 173.351562 213.152344 161.871094 201.675781 161.871094 187.511719 C 161.871094 173.351562 173.351562 161.871094 187.511719 161.871094 C 201.675781 161.871094 213.152344 173.351562 213.152344 187.511719 C 213.152344 201.675781 201.675781 213.152344 187.511719 213.152344 Z M 187.511719 213.152344 " fill-opacity="1" fill-rule="nonzero"/></g><path fill="#000000" d="M 180.195312 194.25 L 192.886719 194.25 L 192.886719 195.75 L 180.195312 195.75 Z M 180.195312 194.25 " fill-opacity="1" fill-rule="nonzero"/><g fill="#000000" fill-opacity="1"><g transform="translate(180.194114, 192.749987)"><g><path d="M 1.21875 -16.828125 L 7.25 -16.828125 C 8.863281 -16.828125 10.179688 -16.394531 11.203125 -15.53125 C 12.222656 -14.675781 12.734375 -13.441406 12.734375 -11.828125 C 12.734375 -10.597656 12.421875 -9.5625 11.796875 -8.71875 C 11.179688 -7.882812 10.34375 -7.296875 9.28125 -6.953125 L 15.078125 0 L 10.203125 0 L 5.0625 -6.65625 L 5.0625 0 L 1.21875 0 Z M 5.0625 -9.359375 L 5.515625 -9.359375 C 5.867188 -9.359375 6.164062 -9.363281 6.40625 -9.375 C 6.65625 -9.394531 6.9375 -9.445312 7.25 -9.53125 C 7.5625 -9.613281 7.8125 -9.726562 8 -9.875 C 8.1875 -10.019531 8.347656 -10.234375 8.484375 -10.515625 C 8.617188 -10.804688 8.6875 -11.15625 8.6875 -11.5625 C 8.6875 -11.976562 8.617188 -12.328125 8.484375 -12.609375 C 8.347656 -12.898438 8.1875 -13.117188 8 -13.265625 C 7.8125 -13.410156 7.5625 -13.523438 7.25 -13.609375 C 6.9375 -13.691406 6.65625 -13.738281 6.40625 -13.75 C 6.164062 -13.769531 5.867188 -13.78125 5.515625 -13.78125 L 5.0625 -13.78125 Z M 5.0625 -9.359375 "/></g></g></g></svg>